<svg xmlns="http://www.w3.org/2000/svg" width="18" height="59.003" viewBox="0 0 18 59.003">
  <path id="Rounded_Rectangle_7_copy_3" data-name="Rounded Rectangle 7 copy 3" d="M454.134,2228.615l-16-28.069a1.024,1.024,0,0,1,.043-1.081,1.006,1.006,0,0,1-.043-1.07l16-27.775a1,1,0,1,1,1.733,1l-16,27.776c-.013.023-.028.046-.043.068.015.022.029.045.043.068l16,28.068a1.022,1.022,0,0,1-.366,1.384.984.984,0,0,1-.5.135A1,1,0,0,1,454.134,2228.615Z" transform="translate(-438 -2170.118)" fill="#00c2f0"/>
</svg>
